<svg width="35" height="37" viewBox="0 0 35 37" fill="none" xmlns="http://www.w3.org/2000/svg">
  <path d="M10.3409 0.0472412C4.63948 0.0472412 0 4.81927 0 10.6836V25.4109C0 31.2752 4.63948 36.0472 10.3409 36.0472H24.6591C30.3605 36.0472 35 31.2752 35 25.4109V10.6836C35 4.81927 30.3605 0.0472412 24.6591 0.0472412H10.3409ZM10.3409 1.6836H24.6591C29.5006 1.6836 33.4091 5.70375 33.4091 10.6836V25.4109C33.4091 30.3907 29.5006 34.4109 24.6591 34.4109H10.3409C5.49939 34.4109 1.59091 30.3907 1.59091 25.4109V10.6836C1.59091 5.70375 5.49939 1.6836 10.3409 1.6836ZM27.0455 6.5927C26.6235 6.5927 26.2189 6.7651 25.9205 7.07198C25.6222 7.37885 25.4545 7.79507 25.4545 8.22906C25.4545 8.66305 25.6222 9.07927 25.9205 9.38614C26.2189 9.69302 26.6235 9.86542 27.0455 9.86542C27.4674 9.86542 27.872 9.69302 28.1704 9.38614C28.4688 9.07927 28.6364 8.66305 28.6364 8.22906C28.6364 7.79507 28.4688 7.37885 28.1704 7.07198C27.872 6.7651 27.4674 6.5927 27.0455 6.5927ZM17.5 9.04724C12.6769 9.04724 8.75 13.0864 8.75 18.0472C8.75 23.0081 12.6769 27.0472 17.5 27.0472C22.3231 27.0472 26.25 23.0081 26.25 18.0472C26.25 13.0864 22.3231 9.04724 17.5 9.04724ZM17.5 10.6836C21.4633 10.6836 24.6591 13.9707 24.6591 18.0472C24.6591 22.1238 21.4633 25.4109 17.5 25.4109C13.5367 25.4109 10.3409 22.1238 10.3409 18.0472C10.3409 13.9707 13.5367 10.6836 17.5 10.6836Z" fill="#4C47FF"/>
</svg>
