<svg width="38" height="30" viewBox="0 0 38 30" fill="none" xmlns="http://www.w3.org/2000/svg">
  <path d="M3.92059 29.0472C2.97452 29.0472 2.18459 28.7279 1.55079 28.0892C0.916996 27.4505 0.600098 26.6545 0.600098 25.7011V3.39337C0.600098 2.44 0.916996 1.64397 1.55079 1.00528C2.18459 0.366586 2.97452 0.0472412 3.92059 0.0472412H34.2796C35.2257 0.0472412 36.0156 0.366586 36.6494 1.00528C37.2832 1.64397 37.6001 2.44 37.6001 3.39337V25.7011C37.6001 26.6545 37.2832 27.4505 36.6494 28.0892C36.0156 28.7279 35.2257 29.0472 34.2796 29.0472H3.92059ZM19.1001 14.7863L2.65565 3.95111V25.7011C2.65565 26.0729 2.77424 26.3783 3.01142 26.6173C3.2486 26.8563 3.55165 26.9758 3.92059 26.9758H34.2796C34.6485 26.9758 34.9516 26.8563 35.1888 26.6173C35.426 26.3783 35.5445 26.0729 35.5445 25.7011V3.95111L19.1001 14.7863ZM19.1001 12.4758L34.912 2.11867H3.28815L19.1001 12.4758ZM2.65565 3.95111V2.11867V25.7011C2.65565 26.0729 2.77424 26.3783 3.01142 26.6173C3.2486 26.8563 3.55165 26.9758 3.92059 26.9758H2.65565V3.95111Z" fill="#4C47FF"/>
</svg>
