<svg width="34" height="34" viewBox="0 0 34 34" fill="none" xmlns="http://www.w3.org/2000/svg">
  <path d="M4 0.0472412C1.80039 0.0472412 0 1.84763 0 4.04724V29.6472C0 31.8469 1.80039 33.6472 4 33.6472H29.6C31.7996 33.6472 33.6 31.8469 33.6 29.6472V4.04724C33.6 1.84763 31.7996 0.0472412 29.6 0.0472412H4ZM4 1.64724H29.6C30.9348 1.64724 32 2.71245 32 4.04724V29.6472C32 30.982 30.9348 32.0472 29.6 32.0472H4C2.66521 32.0472 1.6 30.982 1.6 29.6472V4.04724C1.6 2.71245 2.66521 1.64724 4 1.64724ZM8 5.65662C7.12382 5.65662 6.33537 5.9185 5.75156 6.40974C5.16775 6.90098 4.80937 7.63485 4.80937 8.42068C4.80937 9.91442 6.10503 11.0789 7.75312 11.1941L7.75625 11.1957C7.83478 11.2224 7.91704 11.2367 8 11.2379C9.81841 11.2379 11.1906 9.96411 11.1906 8.42068C11.1905 8.4066 11.19 8.39254 11.1891 8.37849C11.1077 6.85831 9.75235 5.65662 8 5.65662ZM8 7.23787C9.11378 7.23787 9.55358 7.73527 9.60156 8.44099C9.59184 9.12599 9.16807 9.65662 8 9.65662C6.89167 9.65662 6.39062 9.08902 6.39062 8.42068C6.39062 8.08651 6.51256 7.83468 6.76875 7.61912C7.02494 7.40355 7.43618 7.23787 8 7.23787ZM5.6 12.0472C5.38783 12.0473 5.18436 12.1316 5.03434 12.2816C4.88431 12.4316 4.80002 12.6351 4.8 12.8472V28.0472C4.80002 28.2594 4.88431 28.4629 5.03434 28.6129C5.18436 28.7629 5.38783 28.8472 5.6 28.8472H10.4C10.6122 28.8472 10.8156 28.7629 10.9657 28.6129C11.1157 28.4629 11.2 28.2594 11.2 28.0472V23.3551V12.8472C11.2 12.6351 11.1157 12.4316 10.9657 12.2816C10.8156 12.1316 10.6122 12.0473 10.4 12.0472H5.6ZM12.8 12.0472C12.5878 12.0473 12.3844 12.1316 12.2343 12.2816C12.0843 12.4316 12 12.6351 12 12.8472V28.0472C12 28.2594 12.0843 28.4629 12.2343 28.6129C12.3844 28.7629 12.5878 28.8472 12.8 28.8472H17.6C17.8122 28.8472 18.0156 28.7629 18.1657 28.6129C18.3157 28.4629 18.4 28.2594 18.4 28.0472V20.0472C18.4 19.3835 18.5811 18.7233 18.9 18.291C19.2189 17.8587 19.6212 17.5993 20.3859 17.6129C21.1745 17.6264 21.592 17.8966 21.9078 18.3207C22.2236 18.7448 22.4 19.3806 22.4 20.0472V28.0472C22.4 28.2594 22.4843 28.4629 22.6343 28.6129C22.7844 28.7629 22.9878 28.8472 23.2 28.8472H28C28.2122 28.8472 28.4156 28.7629 28.5657 28.6129C28.7157 28.4629 28.8 28.2594 28.8 28.0472V19.4566C28.8 17.0874 28.0982 15.2107 26.8953 13.941C25.6924 12.6713 24.0193 12.0472 22.25 12.0472C20.5684 12.0472 19.2887 12.6112 18.4 13.1863V12.8472C18.4 12.6351 18.3157 12.4316 18.1657 12.2816C18.0156 12.1316 17.8122 12.0473 17.6 12.0472H12.8ZM6.4 13.6472H9.6V23.3551V27.2472H6.4V13.6472ZM13.6 13.6472H16.8V14.8957C16.8 15.0634 16.8528 15.2269 16.9509 15.363C17.0489 15.4992 17.1872 15.601 17.3463 15.6542C17.5054 15.7074 17.6772 15.7093 17.8374 15.6595C17.9976 15.6098 18.1381 15.5109 18.2391 15.3769C18.2391 15.3769 19.4954 13.6472 22.25 13.6472C23.6527 13.6472 24.8555 14.1133 25.7344 15.041C26.6133 15.9687 27.2 17.3978 27.2 19.4566V27.2472H24V20.0472C24 19.1139 23.7764 18.1489 23.1922 17.3644C22.608 16.5799 21.6255 16.0337 20.4141 16.0129C19.1964 15.9912 18.198 16.5488 17.6125 17.3426C17.027 18.1363 16.8 19.111 16.8 20.0472V27.2472H13.6V13.6472Z" fill="#4C47FF"/>
</svg>
