<svg width="250" height="69" viewBox="0 0 250 69" fill="none" xmlns="http://www.w3.org/2000/svg">
<g clip-path="url(#clip0_82_145)">
<path d="M75.0889 24.6576C75.0889 21.9704 75.5867 19.619 76.592 17.6351C77.5974 15.6092 78.9736 14.0556 80.7403 12.9849C82.507 11.8722 84.5274 11.3264 86.7919 11.3264C89.7689 11.3264 92.2091 12.1136 94.1222 13.6987C96.0645 15.2838 97.3139 17.4357 97.88 20.1544H94.5712C94.1612 18.2859 93.2632 16.8268 91.8772 15.7876C90.5205 14.7064 88.8319 14.1711 86.8017 14.1711C85.1814 14.1711 83.7271 14.57 82.4289 15.3572C81.1307 16.1445 80.1059 17.3307 79.3348 18.9157C78.6027 20.4693 78.2318 22.3798 78.2318 24.6576C78.2318 26.9355 78.6027 28.867 79.3348 30.452C80.0961 32.0371 81.1307 33.2232 82.4289 34.0105C83.7271 34.7978 85.1814 35.1967 86.8017 35.1967C88.8319 35.1967 90.5205 34.6718 91.8772 33.6326C93.2632 32.5514 94.1612 31.0713 94.5712 29.1714H97.88C97.3237 31.8271 96.0645 33.9685 94.1222 35.5851C92.1798 37.2016 89.7396 38.0099 86.7919 38.0099C84.5274 38.0099 82.507 37.4746 80.7403 36.3934C78.9736 35.2807 77.5876 33.7376 76.592 31.7432C75.5867 29.7067 75.0889 27.3449 75.0889 24.6576Z" fill="#4C47FF"/>
<path d="M126.313 24.6051C126.313 21.9494 126.811 19.619 127.816 17.6246C128.821 15.5987 130.188 14.0451 131.925 12.9744C133.692 11.8617 135.683 11.3159 137.889 11.3159C140.007 11.3159 141.92 11.8722 143.628 12.9744C145.337 14.0871 146.586 15.5252 147.386 17.2992V6.76013H150.48V37.611H147.386V31.8166C146.654 33.6221 145.444 35.1127 143.765 36.2779C142.086 37.4221 140.115 37.9889 137.85 37.9889C135.644 37.9889 133.653 37.4326 131.886 36.3304C130.149 35.2177 128.782 33.6536 127.777 31.6277C126.801 29.6122 126.313 27.2609 126.313 24.6051ZM147.377 24.6576C147.377 22.5687 146.976 20.7317 146.186 19.1467C145.395 17.5616 144.302 16.344 142.916 15.4937C141.559 14.6434 140.056 14.213 138.416 14.213C136.708 14.213 135.176 14.6224 133.829 15.4517C132.472 16.2705 131.398 17.4776 130.608 19.0627C129.846 20.6163 129.456 22.4637 129.456 24.6156C129.456 26.736 129.837 28.6045 130.608 30.2211C131.398 31.8061 132.482 33.0238 133.829 33.8741C135.185 34.6928 136.718 35.1127 138.416 35.1127C140.066 35.1127 141.569 34.6823 142.916 33.8321C144.302 32.9818 145.385 31.7536 146.186 30.1791C146.976 28.5835 147.377 26.7465 147.377 24.6576Z" fill="#4C47FF"/>
<path d="M179.333 23.3245C179.333 24.4687 179.304 25.3399 179.245 25.9383H159.245C159.333 27.9012 159.773 29.5808 160.573 30.9769C161.364 32.373 162.408 33.4332 163.706 34.1575C165.004 34.8503 166.41 35.2072 167.942 35.2072C169.943 35.2072 171.622 34.6823 172.979 33.6431C174.365 32.5934 175.272 31.1868 175.712 29.4128H178.982C178.396 31.9426 177.127 34.021 175.185 35.6376C173.272 37.2226 170.861 38.0099 167.942 38.0099C165.678 38.0099 163.648 37.4746 161.852 36.3934C160.056 35.2807 158.64 33.7376 157.615 31.7432C156.61 29.7172 156.112 27.3554 156.112 24.6681C156.112 21.9809 156.61 19.619 157.615 17.5931C158.621 15.5672 160.017 14.0136 161.813 12.9429C163.608 11.8617 165.658 11.3264 167.952 11.3264C170.246 11.3264 172.247 11.8617 173.955 12.9429C175.692 14.0241 177.02 15.4727 177.927 17.3097C178.864 19.0942 179.333 21.1096 179.333 23.3245ZM176.2 23.23C176.229 21.2986 175.858 19.6505 175.097 18.2964C174.365 16.9318 173.35 15.9031 172.051 15.2103C170.753 14.5175 169.348 14.1606 167.815 14.1606C165.522 14.1606 163.56 14.9478 161.939 16.5329C160.319 18.118 159.421 20.3433 159.245 23.23H176.2Z" fill="#4C47FF"/>
<path d="M213.691 11.2109C216.511 11.2109 218.815 12.1766 220.582 14.1081C222.378 16.008 223.276 18.7793 223.276 22.4218V37.6215H220.23V22.7997C220.23 19.9864 219.596 17.8345 218.337 16.3439C217.068 14.8534 215.35 14.1081 213.173 14.1081C210.909 14.1081 209.093 14.9163 207.746 16.5329C206.39 18.1494 205.716 20.4903 205.716 23.5554V37.611H202.671V22.7997C202.671 19.9864 202.036 17.8345 200.777 16.3439C199.508 14.8534 197.771 14.1081 195.565 14.1081C193.3 14.1081 191.485 14.9163 190.138 16.5329C188.781 18.1494 188.108 20.4903 188.108 23.5554V37.611H185.014V11.6832H188.108V16.1445C188.869 14.528 189.962 13.3103 191.378 12.4915C192.793 11.6413 194.364 11.2109 196.102 11.2109C198.191 11.2109 200.016 11.7462 201.578 12.8274C203.169 13.9086 204.311 15.4832 205.023 17.5721C205.667 15.5147 206.78 13.9506 208.332 12.8694C209.894 11.7672 211.69 11.2109 213.691 11.2109Z" fill="#4C47FF"/>
<path d="M250 11.6937L240.327 37.4745V44.4236H237.155V37.4745L227.268 11.6937H230.664L238.873 33.8216L246.818 11.6937C246.818 11.6937 250 11.6937 250 11.6937Z" fill="#4C47FF"/>
<path d="M60.8092 14.9163L52.6883 37.611H49.4185L59.0913 11.6832H62.5758L72.2487 37.611H68.9398L60.8092 14.9163Z" fill="#4C47FF"/>
<path d="M112.101 14.9163L103.98 37.611H100.71L110.383 11.6832H113.868L123.541 37.611H120.232L112.101 14.9163Z" fill="#4C47FF"/>
<path d="M31.146 36.6453L41.2288 37.7685L20.6143 0V17.0682L31.146 36.6453Z" fill="#E1E0FF"/>
<path d="M31.146 36.6451L20.6143 51.1836L41.2288 37.7683L31.146 36.6451Z" fill="#4C47FF"/>
<path d="M10.0828 36.6453L0 37.7685L20.6145 0V17.0682L10.0828 36.6453Z" fill="#E1E0FF"/>
<path d="M10.0828 36.6451L20.6145 51.1836L0 37.7683L10.0828 36.6451Z" fill="#4C47FF"/>
<path d="M73.6705 58.4814C74.7735 57.9145 75.3396 56.8753 75.3396 55.4372C75.3396 53.0124 73.8072 51.7213 70.8595 51.7213H63.334V53.7262L64.6517 53.9571V63.268L63.334 63.499V65.5039H71.4256C74.3538 65.5039 75.8862 64.2128 75.8862 61.7879C75.896 60.1294 75.1444 59.0062 73.6705 58.4814ZM67.8044 54.4715H70.4105C71.5134 54.4715 72.0795 54.9544 72.0795 55.8676C72.0795 56.7808 71.5134 57.2847 70.4105 57.2847H67.7946V54.4715H67.8044ZM70.9668 62.7747H67.8044V59.9405H70.9668C72.0698 59.9405 72.6359 60.4653 72.6359 61.3786C72.6359 62.2813 72.06 62.7642 70.9668 62.7747Z" fill="#4C47FF"/>
<path d="M81.4889 53.9571L82.8066 53.7262V51.7213H77.0283V53.7262L78.346 53.9571V65.5144H81.4889V63.5095V63.2785V53.9571Z" fill="#4C47FF"/>
<path d="M89.6291 53.7262V51.7213H85.2661V53.9151V57.5261L87.7258 54.1041L89.6291 53.7262Z" fill="#4C47FF"/>
<path d="M87.8821 63.0896L84.544 58.6179L82.6406 61.3576C86.2326 67.1835 87.2086 67.215 89.2584 67.215H90.5077V64.3493H89.8342C88.8679 64.3388 88.6727 63.9294 87.8821 63.0896Z" fill="#4C47FF"/>
<path d="M162.063 63.2575L158.256 51.7422C158.256 51.7317 158.247 51.7213 158.237 51.7213H152.859V53.6527L154.069 53.9886L150.965 63.2575L149.755 63.583V65.5144H151.883H153.083H155.211V63.583L154.001 63.2575L154.411 61.8929H158.618L159.018 63.2575L157.807 63.5935V65.5249H159.935H161.116H163.244V63.5935L162.063 63.2575ZM155.094 59.5626L156.334 55.4372L156.49 54.9124H156.548L156.695 55.3952L157.973 59.5626H155.094Z" fill="#4C47FF"/>
<path d="M164.62 53.6737L165.987 53.9781V63.268L164.62 63.5725V65.5144H170.496V63.5725L169.139 63.268V53.9781L170.496 53.6737V51.7213H164.62V53.6737Z" fill="#4C47FF"/>
<path d="M196.147 59.0587C195.376 58.3659 194.244 57.7886 192.76 57.3372C192.136 57.0853 191.648 56.8649 191.306 56.6654C190.955 56.4765 190.711 56.277 190.574 56.0881C190.437 55.8991 190.369 55.6787 190.369 55.4268C190.369 55.1223 190.447 54.8704 190.613 54.671C190.779 54.4715 191.003 54.3141 191.286 54.2196C191.569 54.1146 191.901 54.0726 192.262 54.0726C192.692 54.0726 193.092 54.1146 193.473 54.2091C193.844 54.2931 194.127 54.3875 194.332 54.4925C194.341 54.4925 194.341 54.503 194.341 54.5135L194.703 56.3295C194.703 56.34 194.712 56.3505 194.732 56.3505H197.026C197.035 56.3505 197.055 56.34 197.055 56.319V53.0334C197.055 53.0229 197.055 53.0124 197.045 53.0124C196.421 52.5086 195.698 52.1412 194.878 51.8892C194.058 51.6373 193.112 51.5323 192.038 51.5533C191.101 51.5743 190.271 51.7423 189.539 52.0782C188.817 52.4036 188.241 52.855 187.831 53.4218C187.421 53.9887 187.206 54.6605 187.206 55.4268C187.206 56.193 187.382 56.8858 187.734 57.4212C188.085 57.9565 188.622 58.4184 189.344 58.8173C190.066 59.2057 190.984 59.5941 192.106 59.972C192.604 60.1714 193.004 60.3709 193.297 60.5598C193.59 60.7488 193.805 60.9587 193.932 61.1687C194.058 61.3786 194.127 61.6305 194.127 61.8929C194.127 62.1659 194.058 62.4178 193.922 62.6172C193.785 62.8167 193.58 62.9742 193.307 63.0791C193.034 63.1841 192.702 63.2366 192.302 63.2366C191.726 63.2366 191.199 63.1631 190.711 63.0056C190.232 62.8482 189.891 62.6592 189.695 62.4388L189.686 62.4283L189.422 60.6228C189.422 60.6123 189.412 60.6018 189.393 60.6018H187.001C186.992 60.6018 186.972 60.6123 186.972 60.6333V64.1708C186.972 64.1813 186.982 64.1918 186.982 64.1918C187.802 64.7796 188.622 65.1785 189.442 65.399C190.271 65.6089 191.218 65.7244 192.292 65.7244C193.287 65.7244 194.166 65.5774 194.908 65.273C195.659 64.9686 196.245 64.5382 196.665 63.9714C197.084 63.4045 197.299 62.7117 197.299 61.8929C197.309 60.6858 196.918 59.741 196.147 59.0587Z" fill="#4C47FF"/>
<path d="M182.112 51.7317C182.121 51.7317 182.112 60.5493 182.112 60.5493H182.053L176.792 51.7213H172.224V53.6737L173.581 53.9781V63.247L172.371 63.583V65.5144H173.581H177.592V63.583L176.382 63.247V56.8753H176.441L181.799 65.5144H184.923V53.9781L186.289 53.6737V51.7213H184.923L182.112 51.7317Z" fill="#4C47FF"/>
<path d="M145.724 60.2134C147.354 59.6885 148.554 58.0615 148.554 56.1405V55.9726C148.554 53.6317 146.778 51.7213 144.601 51.7213H136.266V53.7262L137.583 53.9571V63.247L136.383 63.5724V65.5039H141.927V63.5724L140.726 63.247V60.3813H142.444L145.099 65.5039H148.837V63.5724L147.617 63.247L145.724 60.2134ZM145.529 56.1405C145.529 56.9698 144.894 57.6521 144.123 57.6521H140.736V54.461H144.123C144.894 54.461 145.529 55.1433 145.529 55.9726V56.1405Z" fill="#4C47FF"/>
<path d="M133.142 58.4814C134.245 57.9145 134.811 56.8753 134.811 55.4372C134.811 53.0124 133.279 51.7213 130.331 51.7213H122.806V53.7262L124.123 53.9571V63.268L122.806 63.499V65.5039H130.897C133.825 65.5039 135.358 64.2128 135.358 61.7879C135.358 60.1294 134.616 59.0062 133.142 58.4814ZM127.266 54.4715H129.882C130.985 54.4715 131.551 54.9544 131.551 55.8676C131.551 56.7808 130.985 57.2847 129.882 57.2847H127.266V54.4715ZM130.429 62.7747H127.266V59.9405H130.429C131.532 59.9405 132.098 60.4653 132.098 61.3786C132.098 62.2813 131.532 62.7642 130.429 62.7747Z" fill="#4C47FF"/>
<path d="M116.081 60.2134C119.068 60.2134 121.264 59.2162 121.264 55.7731C121.264 52.9284 119.068 51.5428 116.491 51.4064C116.481 51.4064 116.461 51.4064 116.452 51.4064C115.251 51.3644 112.323 51.2804 110.82 52.624V56.151H113.006L113.416 54.6604C113.455 54.6395 114.119 54.2196 115.368 54.1251C116.823 54.0201 117.916 54.377 118.199 54.9544V54.9334C118.345 55.2063 118.423 55.5002 118.423 55.8256C118.423 57.2007 117.018 57.4947 116.071 57.4947C113.514 57.4947 110.683 58.3344 110.683 62.0714V65.4934H121.166V62.9007V61.2841H118.95L118.501 62.9007H113.406V62.0924C113.416 60.3604 114.988 60.2134 116.081 60.2134Z" fill="#4C47FF"/>
<path d="M94.1875 61.536H97.8966V65.5249H100.6V58.6284H94.1875V61.536Z" fill="#4C47FF"/>
<path d="M103.304 51.7213H100.6V58.6178H107.013V55.7101H103.304V51.7213Z" fill="#4C47FF"/>
<path d="M59.986 58.4814C61.0889 57.9145 61.655 56.8753 61.655 55.4372C61.655 53.0124 60.1226 51.7213 57.1749 51.7213H49.6494V53.7262L50.9671 53.9571V63.268L49.6494 63.499V65.5039H57.741C60.6692 65.5039 62.2016 64.2128 62.2016 61.7879C62.2016 60.1294 61.4501 59.0062 59.986 58.4814ZM54.11 54.4715H56.7259C57.8289 54.4715 58.395 54.9544 58.395 55.8676C58.395 56.7703 57.8289 57.2847 56.7259 57.2847H54.11V54.4715ZM57.2725 62.7747H54.11V59.9405H57.2725C58.3755 59.9405 58.9416 60.4653 58.9416 61.3786C58.9416 62.2813 58.3755 62.7747 57.2725 62.7747Z" fill="#4C47FF"/>
</g>
<defs>
<clipPath id="clip0_82_145">
<rect width="250" height="68.0945" fill="white"/>
</clipPath>
</defs>
</svg>
